<svg aria-hidden="true" style="position: absolute; width: 0; height: 0; overflow: hidden;" version="1.1" xmlns="http://www.w3.org/2000/svg" xmlns:xlink="http://www.w3.org/1999/xlink">
<defs>
<symbol id="icon-car" viewBox="0 0 32 32">
<path fill="#000" style="fill: var(--color1, #000)" d="M27.077 19.269h-2.462c-0.68 0-1.231 0.551-1.231 1.231v4.923c0 0.68 0.551 1.231 1.231 1.231h2.462c0.68 0 1.231-0.551 1.231-1.231v-4.923c0-0.68-0.551-1.231-1.231-1.231z"></path>
<path fill="#000" style="fill: var(--color1, #000)" d="M7.385 19.269h-2.462c-0.68 0-1.231 0.551-1.231 1.231v4.923c0 0.68 0.551 1.231 1.231 1.231h2.462c0.68 0 1.231-0.551 1.231-1.231v-4.923c0-0.68-0.551-1.231-1.231-1.231z"></path>
<path fill="#000" style="fill: var(--color1, #000)" d="M28.308 14.346l-3.471-8.331c-0.382-0.917-1.279-1.515-2.272-1.515h-13.128c-0.994 0-1.89 0.598-2.272 1.515l-3.471 8.331h24.615zM24.616 11.885h-17.231l2.051-4.923h13.128l2.051 4.923z"></path>
<path fill="#000" style="fill: var(--color1, #000)" d="M3.077 10.654h-1.231c-1.020 0-1.846 0.827-1.846 1.846s0.827 1.846 1.846 1.846h1.231c1.020 0 1.846-0.827 1.846-1.846s-0.827-1.846-1.846-1.846z"></path>
<path fill="#000" style="fill: var(--color1, #000)" d="M30.154 10.654h-1.231c-1.020 0-1.846 0.827-1.846 1.846s0.826 1.846 1.846 1.846h1.231c1.020 0 1.846-0.827 1.846-1.846s-0.826-1.846-1.846-1.846z"></path>
<path fill="#000" style="fill: var(--color1, #000)" d="M24.615 11.885h-17.231c-2.719 0-4.923 2.204-4.923 4.923v2.462c0 2.719 2.204 4.923 4.923 4.923h17.231c2.719 0 4.923-2.204 4.923-4.923v-2.462c0-2.719-2.204-4.923-4.923-4.923z"></path>
<path fill="#fff" style="fill: var(--color2, #fff)" d="M7.385 20.5c1.359 0 2.462-1.102 2.462-2.462s-1.102-2.462-2.462-2.462-2.462 1.102-2.462 2.462c0 1.36 1.102 2.462 2.462 2.462z"></path>
<path fill="#fff" style="fill: var(--color2, #fff)" d="M24.615 20.5c1.36 0 2.462-1.102 2.462-2.462s-1.102-2.462-2.462-2.462c-1.359 0-2.462 1.102-2.462 2.462s1.102 2.462 2.462 2.462z"></path>
<path fill="#000" style="fill: var(--color1, #000)" opacity="0.4" d="M14.769 16.808c0-0.68-0.551-1.231-1.231-1.231s-1.231 0.551-1.231 1.231v2.462c0 0.68 0.551 1.231 1.231 1.231s1.231-0.551 1.231-1.231v-2.462z"></path>
<path fill="#000" style="fill: var(--color1, #000)" opacity="0.4" d="M19.692 16.808c0-0.68-0.551-1.231-1.231-1.231s-1.231 0.551-1.231 1.231v2.462c0 0.68 0.551 1.231 1.231 1.231s1.231-0.551 1.231-1.231v-2.462z"></path>
</symbol>
</defs>
</svg>
